<svg width="99" height="107" viewBox="0 0 99 107" fill="none" xmlns="http://www.w3.org/2000/svg">
<path d="M0 0H99V57.5C99 84.8381 76.8381 107 49.5 107C22.1619 107 0 84.8381 0 57.5V0Z" fill="#EB5757"/>
<path d="M26 49.192C24.96 49.192 24.04 49.04 23.24 48.736C22.44 48.432 21.816 48.064 21.368 47.632C20.92 47.184 20.696 46.76 20.696 46.36C20.696 46.072 20.808 45.776 21.032 45.472C21.256 45.152 21.512 44.992 21.8 44.992C22.024 44.992 22.24 45.088 22.448 45.28C22.656 45.472 22.896 45.696 23.168 45.952C23.456 46.192 23.816 46.408 24.248 46.6C24.68 46.792 25.232 46.888 25.904 46.888C26.768 46.888 27.488 46.68 28.064 46.264C28.64 45.848 28.928 45.208 28.928 44.344C28.928 43.736 28.784 43.232 28.496 42.832C28.224 42.432 27.856 42.096 27.392 41.824C26.928 41.552 26.416 41.304 25.856 41.08C25.296 40.856 24.736 40.616 24.176 40.36C23.632 40.104 23.128 39.8 22.664 39.448C22.2 39.08 21.824 38.624 21.536 38.08C21.264 37.52 21.128 36.824 21.128 35.992C21.128 35.112 21.288 34.376 21.608 33.784C21.944 33.176 22.384 32.696 22.928 32.344C23.472 31.992 24.072 31.744 24.728 31.6C25.384 31.44 26.032 31.36 26.672 31.36C27.056 31.36 27.496 31.392 27.992 31.456C28.488 31.52 28.968 31.624 29.432 31.768C29.896 31.896 30.28 32.072 30.584 32.296C30.888 32.52 31.04 32.792 31.04 33.112C31.04 33.272 31 33.464 30.92 33.688C30.84 33.896 30.72 34.08 30.56 34.24C30.416 34.4 30.224 34.48 29.984 34.48C29.776 34.48 29.544 34.408 29.288 34.264C29.032 34.104 28.696 33.952 28.28 33.808C27.88 33.648 27.344 33.568 26.672 33.568C25.792 33.568 25.072 33.744 24.512 34.096C23.952 34.448 23.672 35 23.672 35.752C23.672 36.264 23.808 36.688 24.08 37.024C24.368 37.344 24.744 37.624 25.208 37.864C25.672 38.088 26.176 38.312 26.72 38.536C27.28 38.744 27.84 38.984 28.4 39.256C28.96 39.512 29.472 39.848 29.936 40.264C30.4 40.664 30.768 41.176 31.04 41.8C31.328 42.408 31.472 43.168 31.472 44.08C31.472 45.232 31.232 46.184 30.752 46.936C30.288 47.688 29.64 48.256 28.808 48.64C27.992 49.008 27.056 49.192 26 49.192ZM34.8498 49C34.4818 49 34.1778 48.912 33.9378 48.736C33.7138 48.56 33.6018 48.36 33.6018 48.136V31.672C33.6018 31.432 33.7138 31.24 33.9378 31.096C34.1778 30.936 34.4818 30.856 34.8498 30.856C35.1858 30.856 35.4818 30.936 35.7378 31.096C35.9938 31.24 36.1218 31.432 36.1218 31.672V39.304C36.3458 38.824 36.7218 38.4 37.2498 38.032C37.7778 37.664 38.4258 37.48 39.1938 37.48C39.9458 37.48 40.6338 37.696 41.2578 38.128C41.8978 38.544 42.4098 39.112 42.7938 39.832C43.1778 40.552 43.3698 41.344 43.3698 42.208V48.136C43.3698 48.424 43.2338 48.64 42.9618 48.784C42.7058 48.928 42.4178 49 42.0978 49C41.8098 49 41.5298 48.928 41.2578 48.784C40.9858 48.64 40.8498 48.424 40.8498 48.136V42.208C40.8498 41.792 40.7378 41.392 40.5138 41.008C40.2898 40.624 39.9938 40.312 39.6258 40.072C39.2578 39.832 38.8578 39.712 38.4258 39.712C37.8498 39.712 37.3218 39.936 36.8418 40.384C36.3618 40.816 36.1218 41.424 36.1218 42.208V48.136C36.1218 48.36 35.9938 48.56 35.7378 48.736C35.4818 48.912 35.1858 49 34.8498 49ZM50.3945 49.192C49.4985 49.192 48.6745 48.968 47.9225 48.52C47.1865 48.072 46.5865 47.488 46.1225 46.768C45.6745 46.032 45.4505 45.248 45.4505 44.416V42.208C45.4505 41.376 45.6665 40.6 46.0985 39.88C46.5465 39.16 47.1465 38.584 47.8985 38.152C48.6505 37.704 49.4825 37.48 50.3945 37.48C51.2745 37.48 52.0905 37.696 52.8425 38.128C53.5945 38.544 54.2025 39.112 54.6665 39.832C55.1305 40.552 55.3625 41.344 55.3625 42.208V44.416C55.3625 45.248 55.1305 46.032 54.6665 46.768C54.2025 47.488 53.5945 48.072 52.8425 48.52C52.0905 48.968 51.2745 49.192 50.3945 49.192ZM50.3945 46.96C50.8425 46.96 51.2505 46.84 51.6185 46.6C51.9865 46.36 52.2825 46.048 52.5065 45.664C52.7305 45.264 52.8425 44.848 52.8425 44.416V42.208C52.8425 41.792 52.7305 41.392 52.5065 41.008C52.2825 40.624 51.9865 40.312 51.6185 40.072C51.2505 39.832 50.8425 39.712 50.3945 39.712C49.9305 39.712 49.5145 39.832 49.1465 40.072C48.7945 40.312 48.5065 40.624 48.2825 41.008C48.0745 41.392 47.9705 41.792 47.9705 42.208V44.416C47.9705 44.848 48.0745 45.264 48.2825 45.664C48.5065 46.048 48.8025 46.36 49.1705 46.6C49.5385 46.84 49.9465 46.96 50.3945 46.96ZM62.7138 49.192C61.6258 49.192 60.6578 48.992 59.8098 48.592C58.9778 48.192 58.3218 47.64 57.8418 46.936C57.3778 46.216 57.1458 45.376 57.1458 44.416V42.136C57.1458 41.304 57.3698 40.536 57.8178 39.832C58.2658 39.112 58.8658 38.544 59.6178 38.128C60.3858 37.696 61.2258 37.48 62.1378 37.48C62.9858 37.48 63.7698 37.672 64.4898 38.056C65.2258 38.424 65.8178 38.944 66.2658 39.616C66.7138 40.288 66.9378 41.056 66.9378 41.92C66.9378 42.592 66.8258 43.072 66.6018 43.36C66.3938 43.648 66.1218 43.824 65.7858 43.888C65.4498 43.952 65.0978 43.984 64.7298 43.984H59.6658V44.536C59.6658 45.336 59.9538 45.976 60.5298 46.456C61.1218 46.92 61.8738 47.152 62.7858 47.152C63.3618 47.152 63.8178 47.08 64.1538 46.936C64.5058 46.776 64.7938 46.616 65.0178 46.456C65.2578 46.296 65.4898 46.216 65.7138 46.216C66.0178 46.216 66.2578 46.36 66.4338 46.648C66.6098 46.92 66.6978 47.16 66.6978 47.368C66.6978 47.608 66.5298 47.872 66.1938 48.16C65.8738 48.448 65.4178 48.696 64.8258 48.904C64.2338 49.096 63.5298 49.192 62.7138 49.192ZM59.6658 42.424H63.6498C64.0018 42.424 64.2338 42.376 64.3458 42.28C64.4738 42.184 64.5378 41.992 64.5378 41.704C64.5378 41.064 64.3058 40.52 63.8418 40.072C63.3778 39.624 62.8018 39.4 62.1138 39.4C61.4578 39.4 60.8818 39.616 60.3858 40.048C59.9058 40.464 59.6658 41 59.6658 41.656V42.424ZM72.4484 49.192C71.6484 49.192 70.9364 49.096 70.3124 48.904C69.7044 48.712 69.2164 48.472 68.8484 48.184C68.4964 47.88 68.3204 47.576 68.3204 47.272C68.3204 47.048 68.4004 46.808 68.5604 46.552C68.7204 46.28 68.9284 46.144 69.1844 46.144C69.3924 46.144 69.6084 46.24 69.8324 46.432C70.0564 46.608 70.3604 46.792 70.7444 46.984C71.1444 47.16 71.6884 47.248 72.3764 47.248C73.1604 47.248 73.6964 47.112 73.9844 46.84C74.2724 46.568 74.4164 46.272 74.4164 45.952C74.4164 45.536 74.2724 45.216 73.9844 44.992C73.7124 44.752 73.3524 44.56 72.9044 44.416C72.4724 44.272 72.0084 44.136 71.5124 44.008C71.0164 43.864 70.5444 43.68 70.0964 43.456C69.6644 43.232 69.3044 42.92 69.0164 42.52C68.7444 42.12 68.6084 41.592 68.6084 40.936C68.6084 40.392 68.7444 39.856 69.0164 39.328C69.2884 38.784 69.7204 38.344 70.3124 38.008C70.9204 37.656 71.7284 37.48 72.7364 37.48C73.3284 37.48 73.8964 37.544 74.4404 37.672C75.0004 37.8 75.4564 37.976 75.8084 38.2C76.1604 38.408 76.3364 38.64 76.3364 38.896C76.3364 39.008 76.2964 39.168 76.2164 39.376C76.1364 39.568 76.0244 39.744 75.8804 39.904C75.7364 40.048 75.5684 40.12 75.3764 40.12C75.2004 40.12 74.9924 40.064 74.7524 39.952C74.5284 39.84 74.2564 39.728 73.9364 39.616C73.6164 39.488 73.2244 39.424 72.7604 39.424C72.0564 39.424 71.5604 39.584 71.2724 39.904C70.9844 40.208 70.8404 40.512 70.8404 40.816C70.8404 41.168 70.9764 41.44 71.2484 41.632C71.5364 41.824 71.8964 41.984 72.3284 42.112C72.7764 42.24 73.2484 42.376 73.7444 42.52C74.2404 42.648 74.7044 42.84 75.1364 43.096C75.5844 43.336 75.9444 43.68 76.2164 44.128C76.5044 44.56 76.6484 45.128 76.6484 45.832C76.6484 46.872 76.2804 47.696 75.5444 48.304C74.8244 48.896 73.7924 49.192 72.4484 49.192Z" fill="white"/>
</svg>
