<svg width="27" height="27" viewBox="0 0 27 27" fill="none" xmlns="http://www.w3.org/2000/svg">
<path d="M10.25 0.5C12.8359 0.5 15.3158 1.52723 17.1443 3.35571C18.9728 5.18419 20 7.66414 20 10.25C20 12.665 19.115 14.885 17.66 16.595L18.065 17H19.25L26.75 24.5L24.5 26.75L17 19.25V18.065L16.595 17.66C14.885 19.115 12.665 20 10.25 20C7.66414 20 5.18419 18.9728 3.35571 17.1443C1.52723 15.3158 0.5 12.8359 0.5 10.25C0.5 7.66414 1.52723 5.18419 3.35571 3.35571C5.18419 1.52723 7.66414 0.5 10.25 0.5ZM10.25 3.5C6.5 3.5 3.5 6.5 3.5 10.25C3.5 14 6.5 17 10.25 17C14 17 17 14 17 10.25C17 6.5 14 3.5 10.25 3.5Z" fill="#2D2D2D"/>
</svg>
